<svg width="92" height="20" viewBox="0 0 92 20" fill="none" xmlns="http://www.w3.org/2000/svg">
<path d="M8.33579 0.454212C7.73321 0.454212 7.08758 0.473749 6.3989 0.512821C4.92591 0.590965 3.82595 0.781441 3.09902 1.08425C2.38166 1.38706 1.78863 1.90965 1.31995 2.65201C0.889534 3.33578 0.559546 4.26374 0.329988 5.4359L0 5.40659L0.258252 0H19.6702L19.9284 5.40659L19.5984 5.4359C19.3402 4.07814 18.9337 3.0525 18.3789 2.35897C17.8337 1.65568 17.0351 1.15263 15.9829 0.849817C15.0934 0.586081 13.5869 0.454212 11.4635 0.454212V15.3993C11.4635 16.3956 11.5161 17.138 11.6213 17.6264C11.7361 18.105 11.9418 18.5006 12.2383 18.8132C12.5061 19.0965 12.8074 19.3016 13.1421 19.4286C13.4865 19.5556 13.9312 19.6337 14.4764 19.663V20H5.30851V19.663C5.86327 19.6337 6.30804 19.5556 6.64281 19.4286C6.98714 19.3016 7.29322 19.0965 7.56104 18.8132C7.85755 18.5006 8.05841 18.105 8.16363 17.6264C8.2784 17.1477 8.33579 16.4054 8.33579 15.3993V0.454212Z" fill="#EA5300"/>
<path d="M26.9156 10.2125V15.3993C26.9156 16.3956 26.9682 17.138 27.0734 17.6264C27.1882 18.105 27.3938 18.5006 27.6903 18.8132C27.9486 19.0867 28.2451 19.2918 28.5799 19.4286C28.9242 19.5556 29.3737 19.6337 29.9285 19.663V20H20.7606V19.663C21.3153 19.6337 21.7601 19.5556 22.0949 19.4286C22.4392 19.2918 22.7405 19.0867 22.9988 18.8132C23.3048 18.5006 23.5105 18.105 23.6157 17.6264C23.7209 17.1477 23.7735 16.4054 23.7735 15.3993V4.60073C23.7735 3.59463 23.7209 2.85226 23.6157 2.37363C23.5105 1.89499 23.3048 1.49939 22.9988 1.18681C22.7405 0.903541 22.4392 0.698413 22.0949 0.571429C21.7505 0.444444 21.3058 0.3663 20.7606 0.336996V0H27.676C28.8333 0 29.5937 0.00488401 29.9572 0.014652C31.4398 0.0830281 32.6019 0.288156 33.4436 0.630037C34.3905 1.02076 35.1222 1.60684 35.6387 2.38828C36.1648 3.15995 36.4278 4.05861 36.4278 5.08425C36.4278 6.60806 35.8635 7.82906 34.7349 8.74725C34.3905 9.02076 34.0079 9.24542 33.5871 9.42125C33.1758 9.59707 32.621 9.76313 31.9228 9.91941C32.4967 10.1636 32.9223 10.4176 33.1997 10.6813C33.4197 10.8864 33.6206 11.1453 33.8023 11.4579C33.984 11.7607 34.2566 12.3028 34.6201 13.0842C35.4714 14.8718 36.1122 16.1807 36.5426 17.011C36.9826 17.8315 37.3509 18.4274 37.6474 18.7985C37.8865 19.1013 38.116 19.3114 38.336 19.4286C38.5656 19.5458 38.8765 19.6239 39.2686 19.663V20H34.5053C34.2662 19.4628 34.1131 19.1209 34.0462 18.9744L33.0419 16.6447C32.4393 15.2479 31.8319 14.0122 31.2198 12.9377C30.6076 11.873 30.0481 11.1453 29.5411 10.7546C29.2829 10.5592 29.0055 10.4225 28.709 10.3443C28.4125 10.2564 28.049 10.2125 27.6186 10.2125H26.9156ZM26.9156 9.89011H27.4608C28.6468 9.89011 29.4933 9.82173 30.0002 9.68498C30.5168 9.54823 30.9998 9.26496 31.4493 8.83517C32.4536 7.85836 32.9558 6.64713 32.9558 5.20147C32.9558 4.42979 32.8075 3.70696 32.511 3.03297C32.2241 2.34921 31.8224 1.78755 31.3059 1.34799C30.9041 1.01587 30.4259 0.786325 29.8711 0.659341C29.3164 0.522589 28.5273 0.454212 27.5038 0.454212H26.9156V9.89011Z" fill="#EA5300"/>
<path d="M59.7566 20H50.3304V19.663C51.1817 19.5849 51.7747 19.4383 52.1095 19.2234C52.7025 18.8425 52.999 18.315 52.999 17.641C52.999 17.2405 52.8651 16.7033 52.5973 16.0293L52.3534 15.4139L50.976 11.956H44.6632L43.9171 13.978L43.5585 14.8864C43.128 15.9609 42.9128 16.8059 42.9128 17.4212C42.9128 17.7827 42.9894 18.1197 43.1424 18.4322C43.305 18.7448 43.5202 18.9988 43.788 19.1941C44.1611 19.4579 44.6393 19.6142 45.2228 19.663V20H38.7952V19.663C39.3021 19.6337 39.7469 19.5067 40.1295 19.2821C40.5121 19.0574 40.8851 18.696 41.2485 18.1978C41.5546 17.7973 41.8511 17.2845 42.1381 16.6593C42.4346 16.0244 42.822 15.0769 43.3002 13.8169L48.5513 0H49.3691L55.6102 15.3993C56.0789 16.5617 56.4519 17.3919 56.7293 17.8901C57.0067 18.3883 57.308 18.7643 57.6332 19.0183C57.8627 19.1941 58.1258 19.3309 58.4223 19.4286C58.7188 19.5165 59.1636 19.5946 59.7566 19.663V20ZM50.7465 11.3553L47.7335 3.76557L44.8928 11.3553H50.7465Z" fill="#EA5300"/>
<path d="M66.3133 9.55311V15.3993C66.3133 16.3956 66.3659 17.1331 66.4711 17.6117C66.5763 18.0806 66.7772 18.4762 67.0737 18.7985C67.332 19.0818 67.6333 19.2918 67.9776 19.4286C68.3315 19.5556 68.7811 19.6337 69.3263 19.663V20H60.1583V19.663C60.6174 19.663 61.0526 19.5897 61.4639 19.4432C61.8752 19.2869 62.1956 19.0818 62.4252 18.8278C62.693 18.525 62.8843 18.1099 62.9991 17.5824C63.1139 17.0549 63.1713 16.3272 63.1713 15.3993V4.60073C63.1713 3.97558 63.1378 3.32601 63.0708 2.65201C62.9752 1.79243 62.5639 1.15263 61.837 0.732601C61.4352 0.507937 60.8757 0.376068 60.1583 0.336996V0H75.1513L75.5673 4.7619L75.2374 4.83517C74.9982 4.0928 74.7782 3.53602 74.5774 3.16484C74.1278 2.31502 73.4965 1.65568 72.6835 1.18681C72.2148 0.913309 71.6744 0.722833 71.0623 0.615385C70.4501 0.507937 69.6084 0.454212 68.5371 0.454212H66.3133V9.0989H66.8872C68.5802 9.0989 69.8093 8.71307 70.5745 7.94139C70.9092 7.60928 71.1627 7.21856 71.3349 6.76923C71.507 6.31013 71.6218 5.71429 71.6792 4.98169L72.0092 4.99634L71.9231 13.8755H71.5788C71.4736 12.8791 71.2918 12.1123 71.0336 11.5751C70.7849 11.0281 70.4023 10.5885 69.8858 10.2564C69.5032 10.0122 69.0297 9.83639 68.4654 9.72894C67.9107 9.61172 67.1933 9.55311 66.3133 9.55311Z" fill="#EA5300"/>
<path d="M82.3249 9.55311V15.3993C82.3249 16.3956 82.3775 17.1331 82.4827 17.6117C82.588 18.0806 82.7888 18.4762 83.0853 18.7985C83.3436 19.0818 83.6449 19.2918 83.9892 19.4286C84.3431 19.5556 84.7927 19.6337 85.3379 19.663V20H76.1699V19.663C76.629 19.663 77.0642 19.5897 77.4755 19.4432C77.8868 19.2869 78.2072 19.0818 78.4368 18.8278C78.7046 18.525 78.8959 18.1099 79.0107 17.5824C79.1255 17.0549 79.1829 16.3272 79.1829 15.3993V4.60073C79.1829 3.97558 79.1494 3.32601 79.0824 2.65201C78.9868 1.79243 78.5755 1.15263 77.8486 0.732601C77.4468 0.507937 76.8873 0.376068 76.1699 0.336996V0H91.1629L91.5789 4.7619L91.249 4.83517C91.0098 4.0928 90.7898 3.53602 90.589 3.16484C90.1394 2.31502 89.5081 1.65568 88.6951 1.18681C88.2265 0.913309 87.686 0.722833 87.0739 0.615385C86.4617 0.507937 85.62 0.454212 84.5488 0.454212H82.3249V9.0989H82.8988C84.5918 9.0989 85.8209 8.71307 86.5861 7.94139C86.9209 7.60928 87.1743 7.21856 87.3465 6.76923C87.5187 6.31013 87.6334 5.71429 87.6908 4.98169L88.0208 4.99634L87.9347 13.8755H87.5904C87.4852 12.8791 87.3034 12.1123 87.0452 11.5751C86.7965 11.0281 86.4139 10.5885 85.8974 10.2564C85.5148 10.0122 85.0414 9.83639 84.477 9.72894C83.9223 9.61172 83.2049 9.55311 82.3249 9.55311Z" fill="#EA5300"/>
</svg>
